<mxfile host="app.diagrams.net" modified="2024-07-16T23:33:15.786Z" agent="Mozilla/5.0 (Windows NT 10.0; Win64; x64) AppleWebKit/537.36 (KHTML, like Gecko) Chrome/126.0.0.0 Safari/537.36" version="24.6.4" etag="qaZjpS8Q3ZActrmlo-2_" type="github">
  <diagram name="PÃ¡gina-1" id="xHhpCMsLChslAIigYEsm">
    <mxGraphModel>
      <root>
        <mxCell id="0" />
        <mxCell id="1" parent="0" />
      </root>
    </mxGraphModel>
  </diagram>
</mxfile>
